<svg width="90" height="91" viewBox="0 0 90 91" fill="none" xmlns="http://www.w3.org/2000/svg">
<path d="M27.7558 55.5896V36.0298H28.8162V39.1066C28.9414 38.9701 29.057 38.8252 29.1623 38.6728C30.0479 36.8344 31.9158 35.6742 33.955 35.6971C36.3726 35.6249 38.3372 36.5204 39.4917 38.6728C40.2264 40.0101 40.6307 41.5037 40.6708 43.0291C40.711 44.5545 40.3858 46.0674 39.7225 47.4415C38.6468 49.8537 35.99 51.053 33.1458 50.6124C32.2606 50.5372 31.4084 50.2412 30.6669 49.7517C29.9254 49.2621 29.3183 48.5945 28.901 47.8098V55.5888L27.7558 55.5896ZM28.8162 42.9489L29.0537 45.2457C29.4727 47.8599 31.0174 49.4047 33.4427 49.6949C34.5816 49.8823 35.7502 49.6686 36.7493 49.0904C37.7484 48.5122 38.5161 47.6052 38.9217 46.5239C39.865 44.2747 39.7954 41.7284 38.7351 39.5318C38.3022 38.5626 37.5659 37.7607 36.6372 37.2472C35.7086 36.7338 34.6382 36.5368 33.5877 36.6859C32.6017 36.7577 31.6625 37.1349 30.9006 37.7652C30.1387 38.3956 29.5919 39.2477 29.3362 40.2032C29.1103 41.1074 28.9367 42.0239 28.8162 42.9481V42.9489ZM62.3214 45.6073C62.1606 46.9845 61.5054 48.2563 60.4776 49.1864C59.4498 50.1164 58.1194 50.6413 56.7338 50.6634C52.2871 50.8874 50.2004 47.9329 49.8687 44.5234C49.6381 42.6719 49.9384 40.7929 50.7348 39.1057C51.289 37.9483 52.1972 36.9975 53.3276 36.3911C54.458 35.7847 55.7521 35.5541 57.0222 35.7327C58.2297 35.8354 59.3744 36.3155 60.2942 37.105C61.214 37.8944 61.8623 38.9534 62.1475 40.1319C62.3734 41.2054 62.5396 42.2907 62.6454 43.3827H50.9672C50.7509 46.4739 52.411 48.9591 54.7641 49.5583C57.6949 50.2797 60.1999 49.0091 61.1092 46.2209C61.3111 45.5054 61.6793 45.4044 62.329 45.6073H62.3214ZM50.9587 42.393H61.4044C61.3391 39.0998 59.2897 36.7063 56.5099 36.6791C53.3712 36.6282 51.0953 38.9258 50.9587 42.393ZM64.4803 45.6794H65.5041C65.5418 46.4342 65.7867 47.1639 66.2121 47.7883C66.6374 48.4128 67.2266 48.9078 67.9149 49.2188C68.7792 49.608 69.7201 49.7971 70.6675 49.7721C71.615 49.7471 72.5446 49.5087 73.3872 49.0745C73.8465 48.8676 74.2312 48.5245 74.4894 48.0918C74.7476 47.659 74.8669 47.1574 74.8309 46.6546C74.8574 46.1698 74.7251 45.6896 74.4541 45.2867C74.1832 44.8839 73.7884 44.5804 73.3295 44.4224C72.203 44.0031 71.0052 43.7722 69.8575 43.4039C68.6632 43.0637 67.4954 42.6364 66.3634 42.1256C64.5142 41.2225 64.3997 37.7053 66.4932 36.5917C67.5652 35.9864 68.7716 35.6594 70.0023 35.6404C71.233 35.6214 72.4489 35.9111 73.539 36.483C74.8912 37.2299 75.6385 38.7382 75.4163 40.2685H74.5383C74.5383 40.2261 74.4585 40.1887 74.4585 40.1455C74.35 37.3445 71.9969 36.4686 69.4707 36.7147C68.7072 36.7996 67.9837 37.0305 67.305 37.3717C66.8971 37.5581 66.5571 37.8668 66.3322 38.255C66.1073 38.6432 66.0085 39.0917 66.0496 39.5386C66.0504 39.9858 66.1897 40.4217 66.4482 40.7865C66.7068 41.1512 67.0719 41.4269 67.4934 41.5756C68.5961 41.9805 69.7667 42.2402 70.9077 42.5577L73.6646 43.2791C74.2912 43.4849 74.8406 43.8762 75.2402 44.4011C75.6397 44.9261 75.8706 45.5601 75.9023 46.2192C76.1229 47.7003 75.3679 49.156 74.0327 49.8307C71.6219 51.1955 67.6511 50.8348 65.8825 49.1093C64.9774 48.1986 64.4726 46.9619 64.4828 45.6786L64.4803 45.6794ZM88.8937 40.2694H87.9334C87.9334 40.1395 87.8825 40.0147 87.8681 39.9154C87.8528 39.1952 87.5905 38.5022 87.1251 37.9525C86.6598 37.4029 86.0197 37.03 85.3123 36.8964C83.9777 36.5134 82.5541 36.582 81.2626 37.0916C80.7519 37.2378 80.3022 37.5455 79.9808 37.9687C79.6594 38.3919 79.4835 38.9078 79.4795 39.4393C79.4612 39.9612 79.6236 40.4733 79.9393 40.8892C80.2549 41.3051 80.7044 41.5991 81.2117 41.7216L85.6007 42.8488C86.0753 42.9627 86.5427 43.105 87.0003 43.2749C88.4 43.7841 89.3501 45.0844 89.3925 46.5706C89.4135 47.2981 89.214 48.0149 88.8204 48.6269C88.4268 49.2389 87.8574 49.7174 87.1869 49.9996C86.1683 50.4626 85.0642 50.7076 83.9454 50.7189C82.8266 50.7301 81.7178 50.5074 80.69 50.065C79.8448 49.7003 79.1315 49.0853 78.6462 48.3027C78.1609 47.5202 77.9268 46.6076 77.9755 45.6879H78.9137C79.2666 47.3897 80.4347 48.8071 82.0371 49.4776C83.6395 50.1482 85.4692 49.9835 86.9265 49.0397C87.3638 48.8122 87.7267 48.4641 87.9724 48.0365C88.218 47.609 88.3361 47.1201 88.3126 46.6275C88.3344 46.1423 88.1974 45.6633 87.9224 45.263C87.6475 44.8628 87.2496 44.5632 86.7891 44.4097C85.6626 43.9904 84.4648 43.7671 83.3171 43.3911C82.1161 43.0562 80.9413 42.6338 79.8018 42.1273C77.9967 41.2387 77.8525 37.7502 79.9104 36.6375C80.9957 36.0069 82.2256 35.6681 83.4805 35.6541C84.7354 35.6401 85.9726 35.9514 87.0716 36.5577C87.7002 36.9331 88.2061 37.4832 88.5279 38.1412C88.8496 38.7991 88.9731 39.5365 88.8835 40.2634L88.8937 40.2694ZM26.0109 50.3103C25.6329 50.4533 25.2157 50.4529 24.838 50.3092C24.4602 50.1655 24.1482 49.8884 23.9606 49.5303L20.2282 44.3655L19.687 43.6441L15.3557 49.5379C15.1792 49.8807 14.884 50.1474 14.5252 50.2883C14.1665 50.4292 13.7688 50.4346 13.4064 50.3035L18.9863 42.8131L13.7949 36.0451C14.5651 35.7667 15.4236 36.0688 15.8519 36.7665L19.7201 41.9949L23.6111 36.7869C23.789 36.45 24.0844 36.1903 24.4411 36.0571C24.7979 35.9239 25.1911 35.9266 25.5461 36.0646L23.5314 38.739L20.8025 42.2928C20.7268 42.3605 20.6662 42.4434 20.6247 42.5362C20.5832 42.6289 20.5617 42.7294 20.5617 42.831C20.5617 42.9326 20.5832 43.033 20.6247 43.1257C20.6662 43.2185 20.7268 43.3014 20.8025 43.3691L25.9999 50.3103H26.0109ZM49.7033 35.9729V36.9914C48.9732 36.9435 48.2411 37.0493 47.5544 37.302C46.8676 37.5547 46.2415 37.9486 45.7163 38.4584C45.1911 38.9682 44.7786 39.5825 44.5054 40.2617C44.2322 40.9409 44.1043 41.6698 44.1301 42.4015C44.1301 44.7803 44.1301 47.1591 44.1301 49.5379V50.3468H43.0978V36.0366H44.1157V38.9691C45.3643 36.8302 47.2916 36.0366 49.7101 35.9789L49.7033 35.9729ZM0.0451539 42.7198L0.49983 40.4731C1.74849 36.0306 6.83816 34.182 10.3398 36.9337C12.3901 38.5447 12.9016 40.827 12.8015 43.3988H1.25056C1.06393 47.9923 4.37646 50.7661 8.6136 49.3503C10.0099 48.8411 11.0609 47.68 11.407 46.2371C11.6309 45.5156 12.0008 45.3917 12.6777 45.6005C12.5648 46.4799 12.2541 47.3223 11.7689 48.0643C11.2838 48.8062 10.6368 49.4285 9.87668 49.8842C8.62086 50.5714 7.18003 50.8437 5.76021 50.6621C4.3404 50.4806 3.01432 49.8545 1.97159 48.8733C0.940086 47.7131 0.317451 46.2464 0.196147 44.6974C0.196147 44.4428 0.111319 44.2051 0.05194 43.9759C0.0462848 43.5476 0.043457 43.1289 0.043457 42.7198H0.0451539ZM1.26498 42.4091H11.7107C11.6453 39.0794 9.54501 36.7173 6.744 36.6952C3.62573 36.6528 1.39476 38.9631 1.25734 42.3947L1.26498 42.4091Z" fill="#1F2626"/>
</svg>
